<svg width="20" height="20" viewBox="0 0 20 20" fill="none" xmlns="http://www.w3.org/2000/svg">
<path d="M10 6.66536C8.61917 6.66536 7.5 7.4112 7.5 8.33203C7.5 9.25286 8.61917 9.9987 10 9.9987C11.3808 9.9987 12.5 10.7445 12.5 11.6654C12.5 12.5862 11.3808 13.332 10 13.332M10 6.66536C10.925 6.66536 11.7333 7.00036 12.1658 7.4987M10 6.66536V5.83203M10 6.66536V13.332M10 13.332V14.1654M10 13.332C9.075 13.332 8.26667 12.997 7.83417 12.4987" stroke="#EF4444" stroke-width="0.833333"/>
<path d="M17.5 10C17.5 5.86064 14.1394 2.5 10 2.5C5.86064 2.5 2.5 5.86064 2.5 10C2.5 14.1394 5.86064 17.5 10 17.5C14.1394 17.5 17.5 14.1394 17.5 10Z" stroke="#EF4444" stroke-width="0.833333"/>
</svg>
