<svg width="20" height="20" viewBox="0 0 20 20" fill="none" xmlns="http://www.w3.org/2000/svg">
<path d="M7.5 15.832V10.832C7.5 9.91156 6.75381 9.16536 5.83333 9.16536H4.16667C3.24619 9.16536 2.5 9.91156 2.5 10.832V15.832C2.5 16.7525 3.24619 17.4987 4.16667 17.4987H5.83333C6.75381 17.4987 7.5 16.7525 7.5 15.832ZM7.5 15.832V7.4987C7.5 6.57822 8.24619 5.83203 9.16667 5.83203H10.8333C11.7538 5.83203 12.5 6.57822 12.5 7.4987V15.832C12.5 16.7525 11.7538 17.4987 10.8333 17.4987H9.16667C8.24619 17.4987 7.5 16.7525 7.5 15.832Z" stroke="#EF4444" stroke-width="0.833333"/>
<path d="M12.5 15.8333C12.5 16.7538 13.2462 17.5 14.1667 17.5H15.8333C16.7538 17.5 17.5 16.7538 17.5 15.8333V4.16667C17.5 3.24619 16.7538 2.5 15.8333 2.5H14.1667C13.2462 2.5 12.5 3.24619 12.5 4.16667V15.8333Z" stroke="#EF4444" stroke-width="0.833333"/>
</svg>
