<svg width="20" height="20" viewBox="0 0 20 20" fill="none" xmlns="http://www.w3.org/2000/svg">
<path d="M12.5 8.33221L16.2942 6.43555C16.5524 6.3065 16.8591 6.32031 17.1047 6.47205C17.3503 6.62379 17.4998 6.89185 17.5 7.18055V12.8172C17.4998 13.1059 17.3503 13.374 17.1047 13.5257C16.8591 13.6775 16.5524 13.6913 16.2942 13.5622L12.5 11.6655" stroke="#EF4444" stroke-width="0.833333"/>
<path d="M4.16667 15C3.24619 15 2.5 14.2538 2.5 13.3333V6.66667C2.5 5.74619 3.24619 5 4.16667 5H10.8333C11.7538 5 12.5 5.74619 12.5 6.66667V13.3333C12.5 14.2538 11.7538 15 10.8333 15H4.16667Z" stroke="#EF4444" stroke-width="0.833333"/>
</svg>
