<svg width="16" height="16" viewBox="0 0 16 16" fill="none" xmlns="http://www.w3.org/2000/svg">
<path d="M9.09279 3.91282C9.03214 3.84672 8.9992 3.75985 9.00075 3.67016C9.0023 3.58046 9.03823 3.49479 9.10112 3.43082C9.1317 3.39994 9.16824 3.3756 9.20852 3.3593C9.24881 3.343 9.29199 3.33508 9.33544 3.33601C9.37889 3.33695 9.42169 3.34672 9.46124 3.36474C9.50078 3.38276 9.53624 3.40865 9.56546 3.44082L13.8221 8.01415L9.56546 12.5868C9.53627 12.619 9.50082 12.645 9.46127 12.663C9.42172 12.6811 9.3789 12.6908 9.33544 12.6918C9.29198 12.6927 9.24878 12.6848 9.2085 12.6685C9.16821 12.6521 9.13167 12.6278 9.10112 12.5968C8.97112 12.4668 8.96446 12.2535 9.09279 12.1148L12.8795 8.01382L9.09279 3.91282Z" fill="#E02E2E"/>
</svg>
