<svg width="26" height="16" viewBox="0 0 26 16" fill="none" xmlns="http://www.w3.org/2000/svg">
<g clip-path="url(#clip0_151_1364)">
<mask id="mask0_151_1364" style="mask-type:luminance" maskUnits="userSpaceOnUse" x="0" y="0" width="26" height="16">
<path d="M23.6364 0H2.36364C1.05824 0 0 1.02335 0 2.28571V13.7143C0 14.9767 1.05824 16 2.36364 16H23.6364C24.9418 16 26 14.9767 26 13.7143V2.28571C26 1.02335 24.9418 0 23.6364 0Z" fill="white"/>
</mask>
<g mask="url(#mask0_151_1364)">
<path d="M23.6364 0H2.36364C1.05824 0 0 1.02335 0 2.28571V13.7143C0 14.9767 1.05824 16 2.36364 16H23.6364C24.9418 16 26 14.9767 26 13.7143V2.28571C26 1.02335 24.9418 0 23.6364 0Z" fill="url(#paint0_linear_151_1364)"/>
<path d="M23.6364 0H2.36364C1.05824 0 0 1.02335 0 2.28571V13.7143C0 14.9767 1.05824 16 2.36364 16H23.6364C24.9418 16 26 14.9767 26 13.7143V2.28571C26 1.02335 24.9418 0 23.6364 0Z" fill="url(#paint1_linear_151_1364)"/>
<path d="M3.50391 11.4264H5.19627V9.16809H6.01882C7.51263 9.16809 8.79845 8.45495 8.79845 6.83667C8.79845 5.15438 7.52209 4.61495 5.981 4.61495H3.50391V11.4264ZM5.19627 7.87895V5.91324H5.88645C6.69954 5.91324 7.15336 6.15095 7.15336 6.83667C7.15336 7.50409 6.75627 7.87895 5.93372 7.87895H5.19627ZM11.6915 7.74181V5.91324H12.4479C13.2515 5.91324 13.6865 6.12352 13.6865 6.76352C13.6865 7.40352 13.2515 7.74181 12.4479 7.74181H11.6915ZM13.7999 11.4264H15.6908L14.1214 8.72924C14.8494 8.40009 15.3315 7.76009 15.3315 6.76352C15.3315 5.11781 14.0835 4.61495 12.5803 4.61495H9.99918V11.4264H11.6915V9.03095H12.5046L13.7999 11.4264ZM19.5955 11.5544C21.5148 11.5544 22.8195 10.2195 22.8195 7.98867C22.8195 5.76695 21.5148 4.49609 19.5955 4.49609C17.6763 4.49609 16.3715 5.75781 16.3715 7.98867C16.3715 10.2195 17.6763 11.5544 19.5955 11.5544ZM19.5955 10.1464C18.669 10.1464 18.1017 9.30524 18.1017 7.98867C18.1017 6.67209 18.669 5.89495 19.5955 5.89495C20.5221 5.89495 21.0988 6.67209 21.0988 7.98867C21.0988 9.30524 20.5221 10.1464 19.5955 10.1464Z" fill="url(#paint2_linear_151_1364)"/>
<path d="M3.50391 11.4264H5.19627V9.16809H6.01882C7.51263 9.16809 8.79845 8.45495 8.79845 6.83667C8.79845 5.15438 7.52209 4.61495 5.981 4.61495H3.50391V11.4264ZM5.19627 7.87895V5.91324H5.88645C6.69954 5.91324 7.15336 6.15095 7.15336 6.83667C7.15336 7.50409 6.75627 7.87895 5.93372 7.87895H5.19627ZM11.6915 7.74181V5.91324H12.4479C13.2515 5.91324 13.6865 6.12352 13.6865 6.76352C13.6865 7.40352 13.2515 7.74181 12.4479 7.74181H11.6915ZM13.7999 11.4264H15.6908L14.1214 8.72924C14.8494 8.40009 15.3315 7.76009 15.3315 6.76352C15.3315 5.11781 14.0835 4.61495 12.5803 4.61495H9.99918V11.4264H11.6915V9.03095H12.5046L13.7999 11.4264ZM19.5955 11.5544C21.5148 11.5544 22.8195 10.2195 22.8195 7.98867C22.8195 5.76695 21.5148 4.49609 19.5955 4.49609C17.6763 4.49609 16.3715 5.75781 16.3715 7.98867C16.3715 10.2195 17.6763 11.5544 19.5955 11.5544ZM19.5955 10.1464C18.669 10.1464 18.1017 9.30524 18.1017 7.98867C18.1017 6.67209 18.669 5.89495 19.5955 5.89495C20.5221 5.89495 21.0988 6.67209 21.0988 7.98867C21.0988 9.30524 20.5221 10.1464 19.5955 10.1464Z" fill="#EECCAA"/>
</g>
</g>
<defs>
<linearGradient id="paint0_linear_151_1364" x1="0" y1="0" x2="14.2833" y2="23.2103" gradientUnits="userSpaceOnUse">
<stop stop-color="#F8EADD"/>
<stop offset="1" stop-color="#C39981"/>
</linearGradient>
<linearGradient id="paint1_linear_151_1364" x1="0" y1="0" x2="14.2833" y2="23.2103" gradientUnits="userSpaceOnUse">
<stop stop-color="#4D505C"/>
<stop offset="1" stop-color="#222222"/>
</linearGradient>
<linearGradient id="paint2_linear_151_1364" x1="2.36463" y1="1.14067" x2="23.193" y2="15.4996" gradientUnits="userSpaceOnUse">
<stop stop-color="#4D505C"/>
<stop offset="1" stop-color="#222222"/>
</linearGradient>
<clipPath id="clip0_151_1364">
<rect width="26" height="16" fill="white"/>
</clipPath>
</defs>
</svg>
