<svg width="20" height="18" viewBox="0 0 20 18" fill="none" xmlns="http://www.w3.org/2000/svg">
<path d="M12.6963 11.6129C13.6438 11.6129 14.412 12.3711 14.412 13.3065L14.4109 14.2375C14.5253 16.356 12.9296 17.4281 10.0657 17.4281C7.21383 17.4281 5.58845 16.3734 5.58845 14.2742V13.3065C5.58845 12.3711 6.35659 11.6129 7.30412 11.6129H12.6963ZM13.2081 12.7121H6.7923C6.63126 12.7121 6.50072 12.841 6.50072 13V14.2274C6.50072 15.5817 7.52254 16.428 10.0657 16.428C12.5945 16.428 13.5727 15.604 13.4998 14.2297V13C13.4998 12.841 13.3692 12.7121 13.2081 12.7121ZM1.91198 6.77421L6.20218 6.77427C6.12153 7.08358 6.07865 7.11051 6.07865 7.27419C6.07865 7.43788 6.08895 7.59912 6.10889 7.75746L1.37667 7.7581C1.24131 7.7581 1.13157 7.86639 1.13157 8V9.43548C1.13157 10.5737 1.99976 11.6877 4.63767 11.6877C5.09052 11.6877 5.48372 11.663 5.82155 11.6129C5.26746 11.9594 4.99976 12 4.70729 12.5886L4.67353 12.5894C1.82165 12.5894 0.196289 11.5347 0.196289 9.43548V8.46772C0.196289 7.53242 0.964428 6.77421 1.91198 6.77421ZM18.0885 6.77421C19.036 6.77421 19.8041 7.53242 19.8041 8.46772L19.8031 9.39879C19.9174 11.5173 18.3217 12.5894 15.4578 12.5894L15.2929 12.5877C14.9998 12 14.7156 11.7416 14.1405 11.3953C14.5195 11.4655 14.9708 11.5 15.4998 11.5C18.0885 11.5 18.8061 10.5917 18.7448 9.43665V7.99924C18.7448 7.86564 18.6351 7.75735 18.4998 7.75735H13.8915C13.9218 7.52344 13.9378 7.46256 13.9218 7.27419C13.9057 7.08583 13.8789 7.08358 13.7982 6.77427L18.0885 6.77421ZM10.0002 4.83871C11.6246 4.83871 12.9414 6.13852 12.9414 7.74192C12.9414 9.34537 11.6246 10.6451 10.0002 10.6451C8.37583 10.6451 7.05906 9.34537 7.05906 7.74192C7.05906 6.13852 8.37583 4.83871 10.0002 4.83871ZM10.0002 5.7682C8.89587 5.7682 8.00072 6.65187 8.00072 7.74192C8.00072 8.83196 8.89587 9.71563 10.0002 9.71563C11.1045 9.71563 11.9998 8.83196 11.9998 7.74192C11.9998 6.65187 11.1045 5.7682 10.0002 5.7682ZM4.60805 0C6.23242 0 7.54924 1.29982 7.54924 2.90323C7.54924 4.50663 6.23242 5.80645 4.60805 5.80645C2.98369 5.80645 1.66688 4.50663 1.66688 2.90323C1.66688 1.29982 2.98369 0 4.60805 0ZM15.3924 0C17.0167 0 18.3335 1.29982 18.3335 2.90323C18.3335 4.50663 17.0167 5.80645 15.3924 5.80645C13.768 5.80645 12.4512 4.50663 12.4512 2.90323C12.4512 1.29982 13.768 0 15.3924 0ZM4.60805 1C3.54319 1 2.67995 1.8521 2.67995 2.90323C2.67995 3.95435 3.54319 4.80645 4.60805 4.80645C5.67292 4.80645 6.53617 3.95435 6.53617 2.90323C6.53617 1.8521 5.67292 1 4.60805 1ZM15.3924 1C14.3275 1 13.4643 1.8521 13.4643 2.90323C13.4643 3.95435 14.3275 4.80645 15.3924 4.80645C16.4572 4.80645 17.3205 3.95435 17.3205 2.90323C17.3205 1.8521 16.4572 1 15.3924 1Z" fill="#EF4444"/>
</svg>
